<svg width="39" height="40" viewBox="0 0 39 40" fill="none" xmlns="http://www.w3.org/2000/svg">
<path fill-rule="evenodd" clip-rule="evenodd" d="M21.3502 17.1307C20.5902 17.8207 19.4202 17.8207 18.6602 17.1207L18.5502 17.0207C13.3002 12.2707 9.87015 9.16065 10.0002 5.28065C10.0602 3.58065 10.9302 1.95065 12.3402 0.990654C14.9802 -0.809346 18.2402 0.0306542 20.0002 2.09065C21.7602 0.0306542 25.0202 -0.819346 27.6602 0.990654C29.0702 1.95065 29.9402 3.58065 30.0002 5.28065C30.1402 9.16065 26.7002 12.2707 21.4502 17.0407L21.3502 17.1307Z" fill="#8B96A5"/>
<path d="M8.63139 32.637C8.63139 33.5574 8.4652 34.3529 8.13281 35.0233C7.80043 35.6938 7.34446 36.2108 6.76492 36.5745C6.18537 36.9381 5.52344 37.1199 4.77912 37.1199C4.0348 37.1199 3.37287 36.9381 2.79332 36.5745C2.21378 36.2108 1.75781 35.6938 1.42543 35.0233C1.09304 34.3529 0.926847 33.5574 0.926847 32.637C0.926847 31.7165 1.09304 30.9211 1.42543 30.2506C1.75781 29.5802 2.21378 29.0631 2.79332 28.6995C3.37287 28.3358 4.0348 28.154 4.77912 28.154C5.52344 28.154 6.18537 28.3358 6.76492 28.6995C7.34446 29.0631 7.80043 29.5802 8.13281 30.2506C8.4652 30.9211 8.63139 31.7165 8.63139 32.637ZM7.60867 32.637C7.60867 31.8813 7.48224 31.2435 7.2294 30.7236C6.9794 30.2037 6.63991 29.8103 6.21094 29.5432C5.7848 29.2762 5.30753 29.1427 4.77912 29.1427C4.25071 29.1427 3.77202 29.2762 3.34304 29.5432C2.9169 29.8103 2.57741 30.2037 2.32457 30.7236C2.07457 31.2435 1.94957 31.8813 1.94957 32.637C1.94957 33.3927 2.07457 34.0304 2.32457 34.5503C2.57741 35.0702 2.9169 35.4637 3.34304 35.7307C3.77202 35.9978 4.25071 36.1313 4.77912 36.1313C5.30753 36.1313 5.7848 35.9978 6.21094 35.7307C6.63991 35.4637 6.9794 35.0702 7.2294 34.5503C7.48224 34.0304 7.60867 33.3927 7.60867 32.637ZM10.272 37.0006V30.4552H11.2436V31.4438H11.3118C11.4311 31.1199 11.647 30.8571 11.9595 30.6554C12.272 30.4537 12.6243 30.3529 13.0163 30.3529C13.0902 30.3529 13.1825 30.3543 13.2933 30.3571C13.4041 30.36 13.4879 30.3642 13.5447 30.3699V31.3927C13.5107 31.3841 13.4325 31.3713 13.3104 31.3543C13.1911 31.3344 13.0646 31.3245 12.9311 31.3245C12.6129 31.3245 12.3288 31.3912 12.0788 31.5248C11.8317 31.6554 11.6357 31.8373 11.4908 32.0702C11.3487 32.3003 11.2777 32.5631 11.2777 32.8586V37.0006H10.272ZM17.0092 37.137C16.4638 37.137 15.9822 36.9992 15.5646 36.7236C15.147 36.4452 14.8203 36.0532 14.5845 35.5475C14.3487 35.039 14.2308 34.4381 14.2308 33.7449C14.2308 33.0574 14.3487 32.4608 14.5845 31.9552C14.8203 31.4495 15.1484 31.0588 15.5689 30.7833C15.9893 30.5077 16.4751 30.3699 17.0263 30.3699C17.4524 30.3699 17.7891 30.441 18.0362 30.583C18.2862 30.7222 18.4766 30.8813 18.6072 31.0603C18.7408 31.2364 18.8445 31.3813 18.9183 31.4949H19.0036V28.2733H20.0092V37.0006H19.0376V35.9949H18.9183C18.8445 36.1142 18.7393 36.2648 18.603 36.4466C18.4666 36.6256 18.272 36.7861 18.0192 36.9282C17.7663 37.0674 17.4297 37.137 17.0092 37.137ZM17.1456 36.2336C17.549 36.2336 17.8899 36.1285 18.1683 35.9182C18.4467 35.7052 18.6584 35.4111 18.8033 35.0361C18.9482 34.6583 19.0206 34.2222 19.0206 33.7279C19.0206 33.2392 18.9496 32.8117 18.8075 32.4452C18.6655 32.0759 18.4553 31.789 18.1768 31.5844C17.8984 31.377 17.5547 31.2733 17.1456 31.2733C16.7195 31.2733 16.3643 31.3827 16.0803 31.6015C15.799 31.8174 15.5874 32.1114 15.4453 32.4836C15.3061 32.8529 15.2365 33.2677 15.2365 33.7279C15.2365 34.1938 15.3075 34.6171 15.4496 34.9978C15.5945 35.3756 15.8075 35.6767 16.0888 35.9012C16.3729 36.1228 16.7251 36.2336 17.1456 36.2336ZM24.7351 37.137C24.1044 37.137 23.5604 36.9978 23.103 36.7194C22.6484 36.4381 22.2976 36.0461 22.0504 35.5432C21.8061 35.0375 21.6839 34.4495 21.6839 33.779C21.6839 33.1086 21.8061 32.5177 22.0504 32.0063C22.2976 31.4921 22.6413 31.0915 23.0817 30.8046C23.5249 30.5148 24.0419 30.3699 24.6328 30.3699C24.9737 30.3699 25.3104 30.4267 25.6428 30.5404C25.9751 30.654 26.2777 30.8387 26.5504 31.0944C26.8232 31.3472 27.0405 31.6824 27.2024 32.1C27.3643 32.5177 27.4453 33.0319 27.4453 33.6427V34.0688H22.3999V33.1995H26.4226C26.4226 32.8302 26.3487 32.5006 26.201 32.2108C26.0561 31.9211 25.8487 31.6924 25.5788 31.5248C25.3118 31.3571 24.9964 31.2733 24.6328 31.2733C24.2322 31.2733 23.8857 31.3728 23.593 31.5716C23.3033 31.7677 23.0803 32.0233 22.924 32.3387C22.7678 32.654 22.6896 32.9921 22.6896 33.3529V33.9324C22.6896 34.4267 22.7749 34.8458 22.9453 35.1895C23.1186 35.5304 23.3587 35.7904 23.6655 35.9694C23.9723 36.1455 24.3288 36.2336 24.7351 36.2336C24.9993 36.2336 25.2379 36.1966 25.451 36.1228C25.6669 36.0461 25.853 35.9324 26.0092 35.7819C26.1655 35.6285 26.2862 35.4381 26.3714 35.2108L27.343 35.4836C27.2408 35.8131 27.0689 36.1029 26.8274 36.3529C26.5859 36.6 26.2876 36.7932 25.9325 36.9324C25.5774 37.0688 25.1783 37.137 24.7351 37.137ZM28.9751 37.0006V30.4552H29.9467V31.4438H30.0149C30.1342 31.1199 30.3501 30.8571 30.6626 30.6554C30.9751 30.4537 31.3274 30.3529 31.7195 30.3529C31.7933 30.3529 31.8857 30.3543 31.9964 30.3571C32.1072 30.36 32.1911 30.3642 32.2479 30.3699V31.3927C32.2138 31.3841 32.1357 31.3713 32.0135 31.3543C31.8942 31.3344 31.7678 31.3245 31.6342 31.3245C31.3161 31.3245 31.032 31.3912 30.782 31.5248C30.5348 31.6554 30.3388 31.8373 30.1939 32.0702C30.0518 32.3003 29.9808 32.5631 29.9808 32.8586V37.0006H28.9751ZM38.0763 31.9211L37.1729 32.1767C37.1161 32.0262 37.0323 31.8799 36.9215 31.7378C36.8136 31.5929 36.6658 31.4736 36.4783 31.3799C36.2908 31.2861 36.0508 31.2392 35.7582 31.2392C35.3576 31.2392 35.0238 31.3316 34.7567 31.5162C34.4925 31.6981 34.3604 31.9296 34.3604 32.2108C34.3604 32.4608 34.4513 32.6583 34.6332 32.8032C34.815 32.9481 35.0991 33.0688 35.4854 33.1654L36.457 33.404C37.0423 33.5461 37.4783 33.7634 37.7653 34.056C38.0522 34.3458 38.1957 34.7194 38.1957 35.1767C38.1957 35.5517 38.0877 35.887 37.8718 36.1824C37.6587 36.4779 37.3604 36.7108 36.9769 36.8813C36.5934 37.0517 36.1474 37.137 35.6388 37.137C34.9712 37.137 34.4187 36.9921 33.9812 36.7023C33.5437 36.4125 33.2667 35.9892 33.1502 35.4324L34.1048 35.1938C34.1957 35.5461 34.3675 35.8103 34.6204 35.9864C34.8761 36.1625 35.2099 36.2506 35.6218 36.2506C36.0906 36.2506 36.4627 36.1512 36.7383 35.9523C37.0167 35.7506 37.1559 35.5091 37.1559 35.2279C37.1559 35.0006 37.0763 34.8103 36.9173 34.6569C36.7582 34.5006 36.5138 34.3841 36.1843 34.3074L35.0934 34.0517C34.494 33.9097 34.0536 33.6895 33.7724 33.3912C33.494 33.0901 33.3548 32.7137 33.3548 32.262C33.3548 31.8927 33.4585 31.566 33.6658 31.2819C33.8761 30.9978 34.1616 30.7748 34.5224 30.6128C34.886 30.4509 35.2979 30.3699 35.7582 30.3699C36.4059 30.3699 36.9144 30.512 37.2837 30.7961C37.6559 31.0802 37.9201 31.4552 38.0763 31.9211Z" fill="#8B96A5"/>
</svg>
