<svg width="421" height="40" viewBox="0 0 421 40" fill="none" xmlns="http://www.w3.org/2000/svg">
<path d="M6 0.5H420.5V39.5H6C2.96243 39.5 0.5 37.0376 0.5 34V6C0.5 2.96243 2.96243 0.5 6 0.5Z" fill="white" stroke="#0D6EFD"/>
<path d="M17.7727 17.2727C17.7045 16.697 17.428 16.25 16.9432 15.9318C16.4583 15.6136 15.8636 15.4545 15.1591 15.4545C14.6439 15.4545 14.1932 15.5379 13.8068 15.7045C13.4242 15.8712 13.125 16.1004 12.9091 16.392C12.697 16.6837 12.5909 17.0152 12.5909 17.3864C12.5909 17.697 12.6648 17.964 12.8125 18.1875C12.964 18.4072 13.1572 18.5909 13.392 18.7386C13.6269 18.8826 13.8731 19.0019 14.1307 19.0966C14.3883 19.1875 14.625 19.2614 14.8409 19.3182L16.0227 19.6364C16.3258 19.7159 16.6629 19.8258 17.0341 19.9659C17.4091 20.1061 17.767 20.2973 18.108 20.5398C18.4527 20.7784 18.7367 21.0852 18.9602 21.4602C19.1837 21.8352 19.2955 22.2955 19.2955 22.8409C19.2955 23.4697 19.1307 24.0379 18.8011 24.5455C18.4754 25.053 17.9981 25.4564 17.3693 25.7557C16.7443 26.0549 15.9848 26.2045 15.0909 26.2045C14.2576 26.2045 13.536 26.0701 12.9261 25.8011C12.3201 25.5322 11.8428 25.1572 11.4943 24.6761C11.1496 24.1951 10.9545 23.6364 10.9091 23H12.3636C12.4015 23.4394 12.5492 23.803 12.8068 24.0909C13.0682 24.375 13.3977 24.5871 13.7955 24.7273C14.197 24.8636 14.6288 24.9318 15.0909 24.9318C15.6288 24.9318 16.1117 24.8447 16.5398 24.6705C16.9678 24.4924 17.3068 24.2462 17.5568 23.9318C17.8068 23.6136 17.9318 23.2424 17.9318 22.8182C17.9318 22.4318 17.8239 22.1174 17.608 21.875C17.392 21.6326 17.108 21.4356 16.7557 21.2841C16.4034 21.1326 16.0227 21 15.6136 20.8864L14.1818 20.4773C13.2727 20.2159 12.553 19.8428 12.0227 19.358C11.4924 18.8731 11.2273 18.2386 11.2273 17.4545C11.2273 16.803 11.4034 16.2348 11.7557 15.75C12.1117 15.2614 12.589 14.8826 13.1875 14.6136C13.7898 14.3409 14.4621 14.2045 15.2045 14.2045C15.9545 14.2045 16.6212 14.339 17.2045 14.608C17.7879 14.8731 18.25 15.2367 18.5909 15.6989C18.9356 16.161 19.1174 16.6856 19.1364 17.2727H17.7727ZM25.0895 26.1818C24.2486 26.1818 23.5232 25.9962 22.9134 25.625C22.3073 25.25 21.8395 24.7273 21.5099 24.0568C21.1842 23.3826 21.0213 22.5985 21.0213 21.7045C21.0213 20.8106 21.1842 20.0227 21.5099 19.3409C21.8395 18.6553 22.2978 18.1212 22.8849 17.7386C23.4759 17.3523 24.1652 17.1591 24.9531 17.1591C25.4077 17.1591 25.8565 17.2348 26.2997 17.3864C26.7429 17.5379 27.1463 17.7841 27.5099 18.125C27.8736 18.4621 28.1634 18.9091 28.3793 19.4659C28.5952 20.0227 28.7031 20.7083 28.7031 21.5227V22.0909H21.9759V20.9318H27.3395C27.3395 20.4394 27.241 20 27.044 19.6136C26.8509 19.2273 26.5743 18.9223 26.2145 18.6989C25.8584 18.4754 25.438 18.3636 24.9531 18.3636C24.419 18.3636 23.9569 18.4962 23.5668 18.7614C23.1804 19.0227 22.883 19.3636 22.6747 19.7841C22.4664 20.2045 22.3622 20.6553 22.3622 21.1364V21.9091C22.3622 22.5682 22.4759 23.1269 22.7031 23.5852C22.9342 24.0398 23.2543 24.3864 23.6634 24.625C24.0724 24.8598 24.5478 24.9773 25.0895 24.9773C25.4418 24.9773 25.7599 24.928 26.044 24.8295C26.3319 24.7273 26.58 24.5758 26.7884 24.375C26.9967 24.1705 27.1577 23.9167 27.2713 23.6136L28.5668 23.9773C28.4304 24.4167 28.2012 24.803 27.8793 25.1364C27.5573 25.4659 27.1596 25.7235 26.6861 25.9091C26.2126 26.0909 25.6804 26.1818 25.0895 26.1818ZM33.3111 26.2045C32.758 26.2045 32.2562 26.1004 31.8054 25.892C31.3546 25.6799 30.9967 25.375 30.7315 24.9773C30.4664 24.5758 30.3338 24.0909 30.3338 23.5227C30.3338 23.0227 30.4323 22.6174 30.6293 22.3068C30.8262 21.9924 31.0895 21.7462 31.419 21.5682C31.7486 21.3902 32.1122 21.2576 32.5099 21.1705C32.9115 21.0795 33.3149 21.0076 33.7202 20.9545C34.2505 20.8864 34.6804 20.8352 35.0099 20.8011C35.3433 20.7633 35.5857 20.7008 35.7372 20.6136C35.8925 20.5265 35.9702 20.375 35.9702 20.1591V20.1136C35.9702 19.553 35.8168 19.1174 35.5099 18.8068C35.2069 18.4962 34.7467 18.3409 34.1293 18.3409C33.4891 18.3409 32.9872 18.4811 32.6236 18.7614C32.2599 19.0417 32.0043 19.3409 31.8565 19.6591L30.5838 19.2045C30.8111 18.6742 31.1141 18.2614 31.4929 17.9659C31.8755 17.6667 32.2921 17.4583 32.7429 17.3409C33.1974 17.2197 33.6444 17.1591 34.0838 17.1591C34.3641 17.1591 34.6861 17.1932 35.0497 17.2614C35.4171 17.3258 35.7713 17.4602 36.1122 17.6648C36.4569 17.8693 36.7429 18.178 36.9702 18.5909C37.1974 19.0038 37.3111 19.5568 37.3111 20.25V26H35.9702V24.8182H35.902C35.8111 25.0076 35.6596 25.2102 35.4474 25.4261C35.2353 25.642 34.9531 25.8258 34.6009 25.9773C34.2486 26.1288 33.8187 26.2045 33.3111 26.2045ZM33.5156 25C34.0459 25 34.4929 24.8958 34.8565 24.6875C35.224 24.4792 35.5005 24.2102 35.6861 23.8807C35.8755 23.5511 35.9702 23.2045 35.9702 22.8409V21.6136C35.9134 21.6818 35.7884 21.7443 35.5952 21.8011C35.4058 21.8542 35.1861 21.9015 34.9361 21.9432C34.6899 21.9811 34.4493 22.0152 34.2145 22.0455C33.9834 22.072 33.7959 22.0947 33.652 22.1136C33.3035 22.1591 32.9777 22.233 32.6747 22.3352C32.3755 22.4337 32.133 22.5833 31.9474 22.7841C31.7656 22.9811 31.6747 23.25 31.6747 23.5909C31.6747 24.0568 31.8471 24.4091 32.1918 24.6477C32.5402 24.8826 32.9815 25 33.5156 25ZM39.7585 26V17.2727H41.054V18.5909H41.1449C41.304 18.1591 41.5919 17.8087 42.0085 17.5398C42.4252 17.2708 42.8949 17.1364 43.4176 17.1364C43.5161 17.1364 43.6392 17.1383 43.7869 17.142C43.9347 17.1458 44.0464 17.1515 44.1222 17.1591V18.5227C44.0767 18.5114 43.9725 18.4943 43.8097 18.4716C43.6506 18.4451 43.482 18.4318 43.304 18.4318C42.8797 18.4318 42.5009 18.5208 42.1676 18.6989C41.8381 18.8731 41.5767 19.1155 41.3835 19.4261C41.1941 19.733 41.0994 20.0833 41.0994 20.4773V26H39.7585ZM48.9915 26.1818C48.1733 26.1818 47.4688 25.9886 46.8778 25.6023C46.2869 25.2159 45.8324 24.6837 45.5142 24.0057C45.196 23.3277 45.0369 22.553 45.0369 21.6818C45.0369 20.7955 45.1998 20.0133 45.5256 19.3352C45.8551 18.6534 46.3134 18.1212 46.9006 17.7386C47.4915 17.3523 48.1809 17.1591 48.9688 17.1591C49.5824 17.1591 50.1354 17.2727 50.6278 17.5C51.1203 17.7273 51.5237 18.0455 51.8381 18.4545C52.1525 18.8636 52.3475 19.3409 52.4233 19.8864H51.0824C50.9801 19.4886 50.7528 19.1364 50.4006 18.8295C50.0521 18.5189 49.5824 18.3636 48.9915 18.3636C48.4688 18.3636 48.0104 18.5 47.6165 18.7727C47.2263 19.0417 46.9214 19.4223 46.7017 19.9148C46.4858 20.4034 46.3778 20.9773 46.3778 21.6364C46.3778 22.3106 46.4839 22.8977 46.696 23.3977C46.9119 23.8977 47.215 24.286 47.6051 24.5625C47.9991 24.839 48.4612 24.9773 48.9915 24.9773C49.34 24.9773 49.6562 24.9167 49.9403 24.7955C50.2244 24.6742 50.465 24.5 50.6619 24.2727C50.8589 24.0455 50.9991 23.7727 51.0824 23.4545H52.4233C52.3475 23.9697 52.16 24.4337 51.8608 24.8466C51.5653 25.2557 51.1733 25.5814 50.6847 25.8239C50.1998 26.0625 49.6354 26.1818 48.9915 26.1818ZM55.7244 20.75V26H54.3835V14.3636H55.7244V18.6364H55.8381C56.0426 18.1856 56.3494 17.8277 56.7585 17.5625C57.1714 17.2936 57.7206 17.1591 58.4062 17.1591C59.0009 17.1591 59.5218 17.2784 59.9688 17.517C60.4157 17.7519 60.7623 18.1136 61.0085 18.6023C61.2585 19.0871 61.3835 19.7045 61.3835 20.4545V26H60.0426V20.5455C60.0426 19.8523 59.8627 19.3163 59.5028 18.9375C59.1468 18.5549 58.6525 18.3636 58.0199 18.3636C57.5805 18.3636 57.1866 18.4564 56.8381 18.642C56.4934 18.8277 56.2206 19.0985 56.0199 19.4545C55.8229 19.8106 55.7244 20.2424 55.7244 20.75Z" fill="#8B96A5"/>
</svg>
